<svg width="1200" height="760" viewBox="0 0 1200 760" fill="none" xmlns="http://www.w3.org/2000/svg">
  <defs>
    <linearGradient id="surface" x1="50" y1="30" x2="1130" y2="730" gradientUnits="userSpaceOnUse">
      <stop stop-color="#FFFFFF"/>
      <stop offset="1" stop-color="#EEF0FC"/>
    </linearGradient>
    <linearGradient id="accent" x1="82" y1="106" x2="526" y2="330" gradientUnits="userSpaceOnUse">
      <stop stop-color="#9258D6"/>
      <stop offset="1" stop-color="#5B5FEF"/>
    </linearGradient>
    <filter id="shadow" x="0" y="0" width="1200" height="760" filterUnits="userSpaceOnUse">
      <feDropShadow dx="0" dy="22" stdDeviation="22" flood-color="#8D93B7" flood-opacity="0.2"/>
    </filter>
  </defs>
  <rect x="20" y="20" width="1160" height="720" rx="34" fill="url(#surface)" stroke="#FFFFFF" stroke-width="3" filter="url(#shadow)"/>
  <rect x="52" y="52" width="1096" height="64" rx="20" fill="#FFFFFF" stroke="#DFE2F2" stroke-width="2"/>
  <circle cx="88" cy="84" r="18" fill="#5B5FEF"/><path d="M81 92V76L88 72L95 76V92L88 96L81 92Z" fill="white"/>
  <rect x="122" y="76" width="150" height="10" rx="5" fill="#5B5FEF"/><rect x="122" y="94" width="94" height="7" rx="3.5" fill="#CFD3E5"/>
  <rect x="864" y="72" width="170" height="24" rx="12" fill="#EEF0FC"/><circle cx="1088" cy="84" r="16" fill="#EEDCFF"/>
  <rect x="52" y="144" width="440" height="560" rx="26" fill="url(#accent)"/>
  <text x="88" y="194" fill="#EEDCFF" font-family="Arial, sans-serif" font-size="14" font-weight="700" letter-spacing="2">OPERACIÓN DIARIA</text>
  <text x="88" y="242" fill="white" font-family="Arial, sans-serif" font-size="34" font-weight="700">Todo en un lugar</text>
  <text x="88" y="274" fill="#E7E8FF" font-family="Arial, sans-serif" font-size="16">Stock, pedidos y equipo conectados.</text>
  <rect x="88" y="322" width="368" height="92" rx="20" fill="#FFFFFF" fill-opacity="0.15" stroke="#FFFFFF" stroke-opacity="0.2"/>
  <circle cx="124" cy="368" r="20" fill="#FFFFFF" fill-opacity="0.2"/><path d="M114 373H134M117 368V356H131V368M112 377H136" stroke="white" stroke-width="3" stroke-linecap="round"/>
  <text x="160" y="360" fill="#E7E8FF" font-family="Arial, sans-serif" font-size="13">Inventario actualizado</text><text x="160" y="386" fill="white" font-family="Arial, sans-serif" font-size="22" font-weight="700">98% disponible</text>
  <rect x="88" y="434" width="368" height="92" rx="20" fill="#FFFFFF" fill-opacity="0.15" stroke="#FFFFFF" stroke-opacity="0.2"/>
  <circle cx="124" cy="480" r="20" fill="#FFFFFF" fill-opacity="0.2"/><path d="M114 477L122 469L130 477L138 469" stroke="white" stroke-width="3" stroke-linecap="round" stroke-linejoin="round"/>
  <text x="160" y="472" fill="#E7E8FF" font-family="Arial, sans-serif" font-size="13">Ventas procesadas</text><text x="160" y="498" fill="white" font-family="Arial, sans-serif" font-size="22" font-weight="700">+24% esta semana</text>
  <rect x="88" y="562" width="368" height="102" rx="20" fill="#FFFFFF" fill-opacity="0.12"/>
  <text x="116" y="594" fill="#E7E8FF" font-family="Arial, sans-serif" font-size="13">Ritmo de operación</text>
  <rect x="116" y="620" width="280" height="9" rx="4.5" fill="#FFFFFF" fill-opacity="0.25"/><rect x="116" y="620" width="224" height="9" rx="4.5" fill="white"/>
  <text x="414" y="628" fill="white" font-family="Arial, sans-serif" font-size="13" font-weight="700">80%</text>
  <rect x="526" y="144" width="622" height="560" rx="26" fill="#FFFFFF" stroke="#DFE2F2" stroke-width="2"/>
  <text x="566" y="194" fill="#202238" font-family="Arial, sans-serif" font-size="22" font-weight="700">Productos destacados</text>
  <text x="566" y="222" fill="#7D8199" font-family="Arial, sans-serif" font-size="14">Revisa existencias y margen en segundos.</text>
  <rect x="566" y="250" width="542" height="74" rx="16" fill="#F5F6FF"/>
  <rect x="590" y="270" width="36" height="36" rx="10" fill="#E7E8FF"/><rect x="646" y="270" width="156" height="10" rx="5" fill="#202238"/><rect x="646" y="290" width="108" height="7" rx="3.5" fill="#CFD3E5"/><rect x="1002" y="270" width="72" height="28" rx="14" fill="#D9F5E4"/><text x="1017" y="289" fill="#227A4B" font-family="Arial, sans-serif" font-size="12" font-weight="700">En stock</text>
  <rect x="566" y="338" width="542" height="74" rx="16" fill="#FFFFFF" stroke="#E7E9F6" stroke-width="2"/>
  <rect x="590" y="358" width="36" height="36" rx="10" fill="#EEDCFF"/><rect x="646" y="358" width="132" height="10" rx="5" fill="#202238"/><rect x="646" y="378" width="126" height="7" rx="3.5" fill="#CFD3E5"/><rect x="1002" y="358" width="72" height="28" rx="14" fill="#FFE0D4"/><text x="1018" y="377" fill="#AA563B" font-family="Arial, sans-serif" font-size="12" font-weight="700">Reponer</text>
  <rect x="566" y="426" width="542" height="74" rx="16" fill="#FFFFFF" stroke="#E7E9F6" stroke-width="2"/>
  <rect x="590" y="446" width="36" height="36" rx="10" fill="#EEDCFF"/><rect x="646" y="446" width="178" height="10" rx="5" fill="#202238"/><rect x="646" y="466" width="92" height="7" rx="3.5" fill="#CFD3E5"/><rect x="1002" y="446" width="72" height="28" rx="14" fill="#D9F5E4"/><text x="1017" y="465" fill="#227A4B" font-family="Arial, sans-serif" font-size="12" font-weight="700">En stock</text>
  <rect x="566" y="538" width="542" height="122" rx="20" fill="#EEF0FC"/>
  <text x="594" y="576" fill="#5C6078" font-family="Arial, sans-serif" font-size="13">Acciones rápidas</text>
  <rect x="594" y="598" width="142" height="36" rx="18" fill="#5B5FEF"/><text x="624" y="621" fill="white" font-family="Arial, sans-serif" font-size="13" font-weight="700">Nueva venta</text>
  <rect x="752" y="598" width="142" height="36" rx="18" fill="white" stroke="#CFD3E5"/><text x="779" y="621" fill="#5B5FEF" font-family="Arial, sans-serif" font-size="13" font-weight="700">Agregar producto</text>
</svg>